<?xml version="1.0" encoding="utf-8"?>
<!-- Generator: Adobe Illustrator 26.0.1, SVG Export Plug-In . SVG Version: 6.00 Build 0)  -->
<svg version="1.1" xmlns="http://www.w3.org/2000/svg" xmlns:xlink="http://www.w3.org/1999/xlink" x="0px" y="0px"  width="10px" height="10px"
	 viewBox="0 0 100 100"  xml:space="preserve" >
<style type="text/css">
	.st0{fill:#FFFFFF;}
</style>
<g id="Layer_2">
</g>
<g id="Layer_1">
	<g>
		<g>
			<g>
				<path class="st0" d="M1325.8,601.83l-16.45,16.45c-4.05-13.42-8.86-26.83-14.94-39.49l13.16-13.42
					C1314.66,577.02,1320.48,589.18,1325.8,601.83z"/>
			</g>
			<g>
				<path class="st0" d="M1333.39,621.07l-18.73,18.48c-1.01-4.81-2.02-9.62-3.29-14.43l16.96-16.96
					C1330.1,612.46,1331.87,616.77,1333.39,621.07z"/>
			</g>
			<g>
				<path class="st0" d="M1328.58,823.08l-28.35-28.6c20.76-47.34,25.06-98.72,15.95-147.58l19.49-19.24
					C1355.67,689.93,1355.16,759.03,1328.58,823.08z"/>
			</g>
			<g>
				<path class="st0" d="M811.42,636.77c-1.01,5.06-1.77,9.87-2.78,14.93l-19.24-19.49c1.27-4.3,3.04-8.61,4.56-12.91L811.42,636.77
					z"/>
			</g>
			<g>
				<path class="st0" d="M828.64,800.55c-8.86,9.87-17.97,20.25-27.34,30.88c-28.6-62.53-31.39-130.37-14.18-192.13l20.5,20.25
					C801.3,706.63,807.12,755.49,828.64,800.55z"/>
			</g>
			<g>
				<path class="st0" d="M826.61,589.18c-5.57,13.16-9.87,26.58-13.16,40.5l-17.21-17.21c4.81-12.66,10.38-25.06,16.96-36.96
					L826.61,589.18z"/>
			</g>
			<g>
				<path class="st0" d="M1063.04,432.48c35.95,0,69.11,6.83,98.72,19.49c1.77-2.02,3.8-3.8,5.57-5.57
					c-31.64-12.4-66.83-19.24-104.29-18.99c-49.36-0.25-94.42,11.39-133.15,32.15h17.21
					C981.03,442.36,1020.01,432.48,1063.04,432.48z"/>
			</g>
			<g>
				<path class="st0" d="M1228.98,481.03c24.53,0,46.59,0,70.44,0c-39.06,39.19-122.53,122.79-159.5,159.88
					c9.38,10.11,18.34,19.78,27.77,29.96c61.65-62.48,168.46-170.1,229.22-231.67c-60.24,0-121.58,0-187.16,0
					c-56.18,57.13-160,161.95-217.12,220.04c-44.57-44.89-88.61-89.25-131.93-132.87c24.99,0,51.68,0,82.82,0
					c23.16,23.94,48.3,49.95,72.83,75.31c9.53-9.6,18.77-18.9,27.51-27.7c-29.22-29.58-58.69-59.41-87.96-89.05
					c-66.2,0-131.99,0-196.82,0c76.88,77.78,154.02,155.82,232.95,235.68C1056.92,654.81,1166.45,544.41,1228.98,481.03z"/>
			</g>
			<g>
				<path class="st0" d="M1099.75,768.9c-10.13,9.87-19.49,18.99-28.35,27.84c30.12,30.38,59.99,60.75,90.37,91.13h194.92
					c-13.16-13.42-26.33-26.83-39.74-40.25c-9.62-9.87-19.24-19.49-28.86-29.36c-38.22-38.48-76.7-77.46-115.18-116.7
					c-15.95-15.95-31.9-32.15-47.84-48.35l-4.3,4.3C1084.31,695.49,994.95,798.02,907.87,898c-10.12,11.64-20.25,23.04-30.12,34.43
					c-74.42,84.8-142.26,162.26-168.84,189.09h-70.37c21.77-21.77,115.94-131.88,199.98-229.6c9.37-11.39,18.99-22.53,28.35-33.16
					c48.6-56.7,90.12-104.55,106.07-121.51c1.27-1.27,2.28-2.28,3.04-3.04c-9.87-10.13-18.99-19.49-27.84-28.6l-3.29,3.29
					c-19.49,20.5-57.72,63.28-103.53,115.18c-8.86,10.13-17.97,20.76-27.59,31.64c-104.55,119.48-233.65,268.83-271.62,307.06h185.8
					c26.33-26.83,103.03-114.67,182.77-206.56c7.34,4.56,14.93,8.86,22.78,12.4c108.6,53.16,250.35,34.68,335.41-55.44h-73.92
					c-68.09,40.25-154.67,45.82-228.33,17.21c-8.1-3.04-16.2-6.58-24.05-10.88c79.49-91.13,155.93-178.72,182.77-206.05
					c44.3,44.81,88.35,89.36,131.89,133.4h-81.51C1151.13,821.56,1125.06,794.98,1099.75,768.9z"/>
			</g>
		</g>
		<g>
			<path class="st0" d="M561.95,1494.16v-58.71h8.39v58.71H561.95z"/>
			<path class="st0" d="M621.49,1494.16v-58.71h6.88l38.83,48.23h-3.61v-48.23h8.39v58.71h-6.88l-38.83-48.22h3.61v48.22H621.49z"/>
			<path class="st0" d="M723.14,1494.16v-58.71h24.74c6.26,0,11.78,1.23,16.56,3.69c4.78,2.46,8.5,5.9,11.16,10.32
				c2.65,4.42,3.98,9.53,3.98,15.35s-1.33,10.93-3.98,15.35c-2.66,4.42-6.37,7.85-11.16,10.32c-4.78,2.46-10.3,3.69-16.56,3.69
				H723.14z M731.53,1486.87h15.85c4.87,0,9.07-0.92,12.62-2.77c3.55-1.84,6.3-4.43,8.26-7.75c1.96-3.33,2.93-7.17,2.93-11.53
				c0-4.42-0.98-8.27-2.93-11.57c-1.96-3.3-4.71-5.87-8.26-7.72c-3.55-1.84-7.76-2.77-12.62-2.77h-15.85V1486.87z"/>
			<path class="st0" d="M850.28,1494.84c-7.72,0-13.78-2.21-18.2-6.62s-6.62-10.88-6.62-19.37v-33.38h8.39v33.04
				c0,6.54,1.44,11.32,4.32,14.34c2.88,3.02,6.95,4.53,12.2,4.53c5.31,0,9.41-1.51,12.29-4.53c2.88-3.02,4.32-7.8,4.32-14.34v-33.04
				h8.14v33.38c0,8.5-2.2,14.96-6.59,19.37S858.05,1494.84,850.28,1494.84z"/>
			<path class="st0" d="M942.96,1494.84c-4.48,0-8.75-0.68-12.83-2.05c-4.08-1.37-7.3-3.15-9.65-5.33l3.1-6.54
				c2.24,1.96,5.09,3.58,8.55,4.86c3.46,1.29,7.07,1.93,10.82,1.93c3.41,0,6.18-0.39,8.3-1.18c2.12-0.78,3.69-1.86,4.7-3.23
				c1.01-1.37,1.51-2.92,1.51-4.65c0-2.01-0.66-3.63-1.97-4.87c-1.31-1.23-3.02-2.22-5.12-2.97c-2.1-0.75-4.4-1.41-6.92-1.97
				c-2.52-0.56-5.05-1.22-7.59-1.97c-2.54-0.75-4.86-1.72-6.96-2.89c-2.1-1.18-3.79-2.76-5.07-4.74c-1.29-1.98-1.93-4.54-1.93-7.68
				c0-3.02,0.8-5.8,2.39-8.34c1.59-2.54,4.05-4.58,7.38-6.12c3.33-1.54,7.56-2.31,12.71-2.31c3.41,0,6.79,0.45,10.15,1.34
				c3.36,0.9,6.26,2.18,8.72,3.86l-2.77,6.71c-2.52-1.68-5.17-2.89-7.97-3.65c-2.8-0.75-5.51-1.13-8.13-1.13
				c-3.3,0-6.01,0.42-8.14,1.26c-2.12,0.84-3.68,1.96-4.65,3.35c-0.98,1.4-1.47,2.97-1.47,4.7c0,2.07,0.66,3.72,1.97,4.95
				c1.31,1.23,3.02,2.21,5.12,2.93c2.1,0.73,4.4,1.39,6.92,1.97s5.04,1.25,7.59,1.97c2.54,0.73,4.87,1.68,6.96,2.85
				c2.1,1.18,3.79,2.74,5.07,4.7c1.29,1.96,1.93,4.47,1.93,7.55c0,2.96-0.81,5.72-2.43,8.26c-1.62,2.54-4.12,4.59-7.5,6.13
				C952.36,1494.07,948.1,1494.84,942.96,1494.84z"/>
			<path class="st0" d="M1022.29,1494.16v-51.41h-20.12v-7.3h48.56v7.3h-20.13v51.41H1022.29z"/>
			<path class="st0" d="M1093.41,1494.16v-58.71h22.9c5.14,0,9.53,0.81,13.17,2.43c3.63,1.62,6.43,3.97,8.39,7.05
				c1.96,3.08,2.94,6.74,2.94,10.99c0,4.25-0.98,7.89-2.94,10.94c-1.96,3.05-4.75,5.38-8.39,7c-3.63,1.62-8.02,2.43-13.17,2.43
				h-18.29l3.77-3.86v21.72H1093.41z M1101.79,1473.28l-3.77-4.11h18.03c5.37,0,9.43-1.16,12.2-3.48c2.77-2.32,4.15-5.58,4.15-9.77
				c0-4.19-1.39-7.44-4.15-9.73c-2.77-2.29-6.83-3.44-12.2-3.44h-18.03l3.77-4.19V1473.28z M1132.66,1494.16l-14.93-21.3h8.97
				l15.1,21.3H1132.66z"/>
			<path class="st0" d="M1187.93,1494.16v-58.71h8.39v58.71H1187.93z"/>
			<path class="st0" d="M1255.86,1486.87h34.22v7.3h-42.6v-58.71h41.43v7.3h-33.04V1486.87z M1255.1,1460.79h30.19v7.13h-30.19
				V1460.79z"/>
			<path class="st0" d="M1354.32,1494.84c-4.48,0-8.75-0.68-12.83-2.05c-4.08-1.37-7.3-3.15-9.65-5.33l3.11-6.54
				c2.24,1.96,5.09,3.58,8.55,4.86c3.46,1.29,7.07,1.93,10.82,1.93c3.41,0,6.17-0.39,8.3-1.18c2.12-0.78,3.69-1.86,4.69-3.23
				c1.01-1.37,1.51-2.92,1.51-4.65c0-2.01-0.66-3.63-1.97-4.87c-1.31-1.23-3.02-2.22-5.11-2.97c-2.1-0.75-4.41-1.41-6.92-1.97
				c-2.52-0.56-5.05-1.22-7.59-1.97c-2.54-0.75-4.86-1.72-6.96-2.89c-2.1-1.18-3.79-2.76-5.07-4.74c-1.29-1.98-1.93-4.54-1.93-7.68
				c0-3.02,0.8-5.8,2.39-8.34c1.59-2.54,4.05-4.58,7.38-6.12c3.32-1.54,7.56-2.31,12.7-2.31c3.41,0,6.79,0.45,10.15,1.34
				c3.35,0.9,6.26,2.18,8.72,3.86l-2.77,6.71c-2.52-1.68-5.17-2.89-7.96-3.65c-2.8-0.75-5.51-1.13-8.14-1.13
				c-3.3,0-6.01,0.42-8.13,1.26c-2.12,0.84-3.68,1.96-4.66,3.35c-0.98,1.4-1.46,2.97-1.46,4.7c0,2.07,0.66,3.72,1.97,4.95
				c1.32,1.23,3.02,2.21,5.12,2.93c2.1,0.73,4.4,1.39,6.92,1.97c2.51,0.59,5.04,1.25,7.59,1.97c2.54,0.73,4.86,1.68,6.96,2.85
				c2.1,1.18,3.79,2.74,5.07,4.7c1.29,1.96,1.93,4.47,1.93,7.55c0,2.96-0.81,5.72-2.43,8.26c-1.62,2.54-4.12,4.59-7.51,6.13
				C1363.72,1494.07,1359.46,1494.84,1354.32,1494.84z"/>
		</g>
		<g>
			<path class="st0" d="M468.66,1396.68h-30.78v-154.75h30.78l61.85,54.5l61.84-54.5h31.07v154.75h-31.07v-113.53l-61.84,54.5
				l-61.85-54.5V1396.68z"/>
			<path class="st0" d="M657.31,1272.99v-31.06h185.54v31.06H657.31z M690.91,1396.68l-33.61-33.6v-59.31h154.47v31.06H688.09v15.25
				l15.53,15.53h139.22v31.06H690.91z"/>
			<path class="st0" d="M1062.26,1241.93v61.84h-31.06v-30.78H907.51v45.18l47.73,47.44h75.97v-30.78h31.06v61.85H942.25
				l-65.52-65.8v-88.95H1062.26z"/>
			<path class="st0" d="M1281.69,1241.93v154.75h-31.07v-61.85h-123.69v61.85h-30.78v-154.75h30.78v61.84h123.69v-61.84H1281.69z"/>
			<path class="st0" d="M1501.11,1242.49l-71.73,77.38l71.73,77.38h-42.08l-50.83-54.5l-50.55,54.5h-42.08l71.73-77.38l-71.73-77.38
				h42.08l50.55,54.79l50.83-54.79H1501.11z"/>
		</g>
	</g>
</g>
</svg>
